<svg viewBox="0 0 1428 961" fill="none" xmlns="http://www.w3.org/2000/svg">
<g filter="url(#filter0_d)">
<path d="M-12 0H1428V914C1352.48 945.257 1298.5 952.5 1222.29 952.5C1146.07 952.5 1098.3 914 1016.57 914C934.84 914 892.588 952.5 810.857 952.5C729.126 952.5 686.874 914 605.143 914C523.412 914 481.16 952.5 399.429 952.5C317.697 952.5 275.446 914 193.714 914C111.983 914 69.6928 955.005 -12 952.5V0Z" fill="url(#paint0_linear)"/>
</g>
<mask id="mask0" mask-type="alpha" maskUnits="userSpaceOnUse" x="-12" y="0" width="1440" height="953">
<path d="M-12 0H1428V914C1352.48 945.257 1298.5 952.5 1222.29 952.5C1146.07 952.5 1098.3 914 1016.57 914C934.84 914 892.588 952.5 810.857 952.5C729.126 952.5 686.874 914 605.143 914C523.412 914 481.16 952.5 399.429 952.5C317.697 952.5 275.446 914 193.714 914C111.983 914 69.6928 955.005 -12 952.5V0Z" fill="url(#paint1_linear)"/>
</mask>
<g mask="url(#mask0)">
<path d="M305.13 58.2072V890.927" stroke="#FFC700" stroke-width="4" stroke-linecap="round"/>
<path d="M355.86 82.9537V916.91" stroke="#FFC700" stroke-width="4" stroke-linecap="round"/>
<path d="M406.59 99.0389V931.758" stroke="#FFC700" stroke-width="4" stroke-linecap="round"/>
<path d="M457.321 115.124V947.844" stroke="#FFC700" stroke-width="4" stroke-linecap="round"/>
<path d="M508.051 115.124V947.844" stroke="#FFC700" stroke-width="4" stroke-linecap="round"/>
<path d="M558.781 99.0389V931.758" stroke="#FFC700" stroke-width="4" stroke-linecap="round"/>
<path d="M609.511 82.9537V916.91" stroke="#FFC700" stroke-width="4" stroke-linecap="round"/>
<path d="M660.242 66.8685V900.825" stroke="#FFC700" stroke-width="4" stroke-linecap="round"/>
<path d="M812.433 27.8928V866.18" stroke="#FFC700" stroke-width="4" stroke-linecap="round"/>
<path d="M863.163 7.47693V881.028" stroke="#FFC700" stroke-width="4" stroke-linecap="round"/>
<path d="M913.893 -9.22693V895.876" stroke="#FFC700" stroke-width="4" stroke-linecap="round"/>
<path d="M964.624 0.0529785V895.876" stroke="#FFC700" stroke-width="4" stroke-linecap="round"/>
<path d="M1015.35 18.6129V881.028" stroke="#FFC700" stroke-width="4" stroke-linecap="round"/>
<path d="M1066.08 35.9354V866.18" stroke="#FFC700" stroke-width="4" stroke-linecap="round"/>
<path d="M1116.81 0.0529785V851.332" stroke="#FFC700" stroke-width="4" stroke-linecap="round"/>
<path d="M761.702 39.0287V836.484" stroke="#FFC700" stroke-width="4" stroke-linecap="round"/>
<path d="M710.972 52.0206V856.9" stroke="#FFC700" stroke-width="4" stroke-linecap="round"/>
<path d="M1186.1 45.3167L196.864 225.966" stroke="#FFC700" stroke-width="4" stroke-linecap="round"/>
<path d="M1171.26 98.5217L149.846 285.358" stroke="#FFC700" stroke-width="4" stroke-linecap="round"/>
<path d="M1139.87 153.196L177.066 333.613" stroke="#FFC700" stroke-width="4" stroke-linecap="round"/>
<path d="M1178.9 194.447L209.855 370.733" stroke="#FFC700" stroke-width="4" stroke-linecap="round"/>
<path d="M1207.98 233.499L126.903 429.228" stroke="#FFC700" stroke-width="4" stroke-linecap="round"/>
<path d="M1279.52 420.845L147.934 624.082" stroke="#FFC700" stroke-width="4" stroke-linecap="round"/>
<path d="M1272.72 475.287L146.284 672.697" stroke="#FFC700" stroke-width="4" stroke-linecap="round"/>
<path d="M1255.39 522.924L144.633 721.313" stroke="#FFC700" stroke-width="4" stroke-linecap="round"/>
<path d="M1235.6 571.18L162.43 766.008" stroke="#FFC700" stroke-width="4" stroke-linecap="round"/>
<path d="M1226.94 624.385L138.091 820.501" stroke="#FFC700" stroke-width="4" stroke-linecap="round"/>
<path d="M1243.02 666.454L126.955 866.901" stroke="#FFC700" stroke-width="4" stroke-linecap="round"/>
<path d="M1277.05 706.667L274.736 891.029" stroke="#FFC700" stroke-width="4" stroke-linecap="round"/>
<path d="M1253.54 375.064L169.114 571.93" stroke="#FFC700" stroke-width="4" stroke-linecap="round"/>
<path d="M1216.42 332.995L235.741 510.14" stroke="#FFC700" stroke-width="4" stroke-linecap="round"/>
<path d="M1217.94 279.899L246.975 452.673" stroke="#FFC700" stroke-width="4" stroke-linecap="round"/>
<path d="M279.435 -8.37855C254.586 -70.8072 198.31 -87.5107 173.277 -88.0588L69.1701 -88.693L-182.818 5.65666C-171.596 115.62 -141.511 342.928 -110.956 372.46C-72.763 409.375 -43.8556 434.672 43.1653 434.565C130.186 434.457 152.677 366.334 153.377 341.119C154.941 284.732 120.703 272.746 132.105 232.541C143.506 192.336 175.717 177.847 220.341 152.164C264.964 126.48 310.496 69.6573 279.435 -8.37855Z" stroke="#FFECA7" stroke-width="4"/>
<path d="M265.515 -13.8299C240.666 -76.2586 184.39 -92.9621 159.358 -93.5102L55.2503 -94.1443L-196.738 0.205308C-185.515 110.168 -155.431 337.477 -124.876 367.009C-86.6828 403.923 -57.7754 429.221 29.2455 429.113C116.267 429.006 138.757 360.883 139.457 335.668C141.021 279.281 106.784 267.295 118.185 227.09C129.586 186.885 161.798 172.396 206.421 146.712C251.044 121.029 296.576 64.206 265.515 -13.8299Z" fill="#FFDE67"/>
<path d="M1092.27 786.448C1071.72 830.96 1113.44 919.069 1136.87 957.56L1522.69 941.382L1455.84 331.463C1442.45 292.135 1403.79 220.536 1356.28 248.764C1296.91 284.049 1367.94 540.648 1356.35 573.602C1344.76 606.557 1315.22 550.007 1299.7 496.15C1284.18 442.293 1157.66 499.17 1202.31 631.12C1246.95 763.071 1200.58 802.235 1182.78 800.41C1164.98 798.585 1117.97 730.809 1092.27 786.448Z" stroke="#FFECA7" stroke-width="4"/>
<path d="M1100.76 795.668C1080.21 840.179 1121.93 928.289 1145.36 966.779L1531.18 950.601L1464.33 340.682C1450.94 301.354 1412.28 229.755 1364.77 257.983C1305.4 293.268 1376.43 549.867 1364.84 582.822C1353.25 615.776 1323.71 559.227 1308.19 505.369C1292.67 451.512 1166.15 508.389 1210.8 640.34C1255.44 772.29 1209.07 811.454 1191.27 809.629C1173.47 807.805 1126.46 740.028 1100.76 795.668Z" fill="#FFDE67"/>
<path d="M201.586 483.429C201.586 483.429 185.319 461.592 158.437 476.046C131.535 490.5 139.679 514.25 111.54 514.25C83.4023 514.25 42.441 525.251 54.0082 564.224C65.5754 603.197 41.185 619.044 83.0984 647.557C124.992 676.069 162.61 676.069 197.272 653.588C231.933 631.106 251.603 646.246 268.518 611.142C285.393 575.995 237.078 463.381 201.586 483.429Z" fill="#360857"/>
<path d="M207.441 713.482L141.4 718.099C90.9584 769.883 152.907 888.882 152.907 888.882L84.3949 882.851V901.838C84.3949 901.838 181.47 953.622 192.835 930.309C204.179 907.016 181.896 786.978 181.896 786.978L224.984 896.639L187.933 1027.33L201.769 1034.25C201.769 1034.25 268.478 948.423 268.478 901.817C268.498 790.513 207.441 713.482 207.441 713.482Z" fill="#360857"/>
<path d="M213.174 624.639C213.174 624.639 227.132 606.275 240.522 578.2C253.933 550.124 280.896 521.57 266.979 496.468C253.062 471.367 229.461 438.154 229.461 438.154L221.783 447.243L247.248 516.662C247.248 516.662 209.892 551.912 192.653 579.385C175.413 606.857 202.093 635.827 213.174 624.639Z" fill="#F4A386"/>
<path d="M144.297 600.39C144.297 600.39 84.4152 555.885 84.4152 538.915C84.4152 521.924 144.297 463.381 144.297 463.381L151.063 473.28L116.929 540.079C116.929 540.079 181.957 567.073 187.649 589.326C193.342 611.578 168.039 619.398 144.297 600.39Z" fill="#F4A386"/>
<path d="M224.518 627.113C229.846 564.495 170.268 561.708 148.855 578.969C127.443 596.23 141.4 718.12 141.4 718.12C164.191 722.778 186.292 721.926 207.441 713.503C207.441 713.482 219.879 681.684 224.518 627.113Z" fill="#F4A386"/>
<path d="M73.172 912.07C73.9621 906.538 74.3065 900.965 74.2457 895.37C74.1849 889.984 74.4078 883.308 75.5827 880.168C77.7301 874.449 98.9197 877.485 99.0615 880.605C99.4262 888.986 93.3894 885.242 90.8166 895.162C88.2439 905.082 97.684 904.188 95.9621 909.699C94.2402 915.21 87.3728 915.647 84.8 926.877C82.2273 938.108 76.2107 939.21 74.0634 937.005C72.6656 935.55 71.8148 921.574 73.172 912.07Z" fill="#6B3194"/>
<path d="M141.441 467.041L151.084 473.259C151.084 473.259 178.533 448.095 177.216 444.477C176.163 441.627 164.575 453.482 164.575 453.482C164.575 453.482 179.343 430.543 178.168 427.319C176.973 424.096 164.656 443.853 164.656 443.853C164.656 443.853 176.73 422.952 175.049 422.183C173.367 421.413 169.923 426.487 159.774 441.336C159.774 441.336 170.45 422.016 168.647 421.164C167.594 420.685 159.025 434.037 155.966 439.569C157.951 435.638 162.874 423.929 162.043 423.555C160.423 422.827 146.789 440.109 141.441 467.041Z" fill="#F4A386"/>
<path d="M230.17 439.298L221.804 447.222C221.804 447.222 190.343 427.611 191.012 423.805C191.539 420.81 205.03 430.293 205.03 430.293C205.03 430.293 186.434 410.516 187.021 407.105C187.609 403.715 203.248 420.831 203.248 420.831C203.248 420.831 187.669 402.53 189.168 401.469C190.667 400.388 194.962 404.734 207.603 417.462C207.603 417.462 193.666 400.45 195.286 399.285C196.238 398.62 207.036 410.141 211.027 415.008C208.373 411.514 201.465 400.928 202.194 400.408C203.632 399.369 220.122 413.801 230.17 439.298Z" fill="#F4A386"/>
<path d="M163.907 539.351L166.277 567.531C166.925 575.309 173.124 581.548 180.721 581.652C180.842 581.652 180.944 581.652 181.065 581.652C181.146 581.652 181.248 581.652 181.329 581.652C187.852 581.548 192.835 575.6 192.511 568.924L190.708 533.715L163.907 539.351Z" fill="#ED9077"/>
<path d="M137.308 552.017C134.493 562.81 129.124 572.065 120.656 579.468C118.995 582.213 119.704 585.811 122.277 587.662L122.844 588.078C130.563 593.631 133.459 603.925 129.833 612.847C123.776 627.696 115.47 651.196 113.465 672.367C113.465 700.318 157.04 698.009 184.995 685.386C219.839 669.664 244.898 685.906 247.531 676.526C253.771 654.316 243.034 626.24 235.843 611.1C232.54 604.154 233.25 595.939 237.747 589.742L239.428 587.433C239.833 586.872 240.137 586.248 240.34 585.582C241.13 582.962 239.691 580.196 237.382 578.803C227.922 573.146 221.48 565.202 217.752 555.219C217.023 553.244 215.423 551.559 213.377 551.289C211.634 551.039 209.811 551.601 208.454 552.952L192.511 568.883C192.511 568.883 189.796 578.408 180.903 578.408C167.513 578.408 165.892 562.768 165.892 562.768C165.892 562.768 155.946 555.635 145.087 549.791C142.332 548.356 137.47 547.483 137.308 552.017Z" fill="#6B3194"/>
<path d="M154.608 520.593C154.608 520.593 146.829 516.371 145.209 526.353C143.588 536.336 155.398 538.707 155.398 538.707C155.398 538.707 166.662 554.242 184.914 558.817C195.408 561.437 203.369 556.093 206.205 545.382C212.141 522.984 206.671 494.784 194.314 489.044C178.898 481.89 156.513 493.411 154.608 520.593Z" fill="#F4A386"/>
<path d="M202.316 521.715C202.62 523.358 201.789 524.897 200.472 525.147C199.156 525.396 197.859 524.273 197.555 522.63C197.251 520.987 198.082 519.448 199.399 519.199C200.715 518.949 202.012 520.072 202.316 521.715Z" fill="#1C2A67"/>
<path d="M196.34 522.152C196.34 522.152 200.715 515.019 207.745 519.969" stroke="#1C2A67" stroke-width="0.7608" stroke-miterlimit="10" stroke-linecap="round" stroke-linejoin="round"/>
<path d="M178.148 526.353C178.452 527.996 177.621 529.535 176.305 529.784C174.988 530.034 173.691 528.911 173.387 527.268C173.084 525.625 173.914 524.086 175.231 523.837C176.548 523.587 177.844 524.71 178.148 526.353Z" fill="#1C2A67"/>
<path d="M172.172 526.769C172.172 526.769 176.548 519.636 183.577 524.586" stroke="#1C2A67" stroke-width="0.7608" stroke-miterlimit="10" stroke-linecap="round" stroke-linejoin="round"/>
<path d="M191.275 522.236C191.275 522.236 201.586 536.128 192.774 537.812" stroke="#1C2A67" stroke-width="0.7608" stroke-miterlimit="10" stroke-linecap="round" stroke-linejoin="round"/>
<path d="M184.63 544.072C184.63 544.072 193.625 543.219 201.303 540.287C201.303 540.287 199.581 545.549 193.787 546.651C187.973 547.753 184.63 544.072 184.63 544.072Z" fill="white"/>
<path d="M180.518 538.915C179.323 532.322 173.144 527.975 166.723 529.202C161.152 530.263 157.242 535.192 157.08 540.765C159.491 543.573 164.413 548.689 171.362 552.952C177.601 551.601 181.693 545.403 180.518 538.915Z" fill="#ED9077"/>
<path d="M202.883 534.63C203.41 537.563 204.969 539.996 207.056 541.743C208.393 535.296 208.818 528.495 208.494 522.007C204.341 524.544 201.951 529.494 202.883 534.63Z" fill="#ED9077"/>
<path d="M149.2 524.773C149.2 524.773 154.689 524.191 154.446 531.033C152.704 532.176 153.089 534.235 154.061 534.63" stroke="#1C2A67" stroke-width="0.7608" stroke-miterlimit="10" stroke-linecap="round" stroke-linejoin="round"/>
<path d="M170.247 520.509C170.247 520.509 174.805 514.832 182.544 517.806" stroke="#1C2A67" stroke-width="0.7608" stroke-miterlimit="10" stroke-linecap="round" stroke-linejoin="round"/>
<path d="M194.537 515.851C194.537 515.851 199.095 510.173 206.833 513.147" stroke="#1C2A67" stroke-width="0.7608" stroke-miterlimit="10" stroke-linecap="round" stroke-linejoin="round"/>
<path d="M147.539 514.25C147.539 514.25 153.332 525.48 169.498 519.657C185.684 513.834 187.791 496.905 187.791 496.905C187.791 496.905 197.819 527.767 212.161 516.225C226.504 504.683 177.621 448.386 147.539 514.25Z" fill="#360857"/>
<path d="M89.1352 916.811C89.1352 916.811 90.7559 927.75 85.6711 927.958C80.6067 928.166 89.1352 916.811 89.1352 916.811Z" stroke="#1C2A67" stroke-width="0.7608" stroke-miterlimit="10" stroke-linecap="round" stroke-linejoin="round"/>
<path d="M89.277 916.791C89.277 916.791 96.6103 924.922 92.5183 928.021C88.4262 931.12 89.277 916.791 89.277 916.791Z" stroke="#1C2A67" stroke-width="0.7608" stroke-miterlimit="10" stroke-linecap="round" stroke-linejoin="round"/>
<path d="M141.4 718.099C141.4 718.099 177.54 726.875 207.441 713.482" stroke="#1C2A67" stroke-width="0.7608" stroke-miterlimit="10" stroke-linecap="round" stroke-linejoin="round"/>
<path d="M138.726 720.948C138.726 720.948 156.472 727.021 178.148 724.504C199.824 721.988 209.386 715.77 209.386 715.77" stroke="#1C2A67" stroke-width="0.7608" stroke-miterlimit="10" stroke-linecap="round" stroke-linejoin="round"/>
<path d="M113.566 668.104C113.566 668.104 117.152 686.55 139.618 687.944C162.084 689.337 189.027 673.885 209.244 672.263C229.461 670.641 248.098 673.885 248.098 673.885" stroke="#27073E" stroke-width="0.7608" stroke-miterlimit="10" stroke-linecap="round" stroke-linejoin="round"/>
<path d="M141.866 548.211C141.866 548.211 142.535 574.04 121.203 586.019" stroke="#27073E" stroke-width="0.7608" stroke-miterlimit="10" stroke-linecap="round" stroke-linejoin="round"/>
<path d="M208.454 552.994C208.454 552.994 218.623 580.362 239.428 587.454" stroke="#27073E" stroke-width="0.7608" stroke-miterlimit="10" stroke-linecap="round" stroke-linejoin="round"/>
<path d="M165.872 562.81C165.872 562.81 166.176 578.699 181.572 578.262C193.443 577.929 193.017 567.157 193.017 567.157" stroke="#1C2A67" stroke-width="0.7608" stroke-miterlimit="10" stroke-linecap="round" stroke-linejoin="round"/>
<path d="M181.572 578.262C181.572 578.262 184.691 590.22 183.658 600.91" stroke="#27073E" stroke-width="0.7608" stroke-miterlimit="10" stroke-linecap="round" stroke-linejoin="round"/>
<path d="M176.163 583.399C176.163 584.335 176.912 585.104 177.824 585.104C178.736 585.104 179.485 584.335 179.485 583.399C179.485 582.463 178.736 581.693 177.824 581.693C176.912 581.693 176.163 582.442 176.163 583.399Z" stroke="#27073E" stroke-width="0.7608" stroke-miterlimit="10" stroke-linecap="round" stroke-linejoin="round"/>
<path d="M176.791 594.296C176.791 595.232 177.54 596.002 178.452 596.002C179.364 596.002 180.113 595.232 180.113 594.296C180.113 593.36 179.364 592.591 178.452 592.591C177.54 592.57 176.791 593.34 176.791 594.296Z" stroke="#27073E" stroke-width="0.7608" stroke-miterlimit="10" stroke-linecap="round" stroke-linejoin="round"/>
<path d="M233.5 436L220 448.5L222 450.5L236 441.5L233.5 436Z" fill="#6FCF97"/>
<path d="M1319.78 674.458C1319.78 674.458 1372.16 704.228 1336.55 781.023C1300.93 857.821 1338.19 848.46 1280.49 1010.94C1262.18 1014.12 1261.92 1014.16 1261.92 1014.16C1261.92 1014.16 1279.79 920.914 1271.96 870.703C1264.14 820.493 1276.83 681.781 1276.83 681.781L1319.78 674.458Z" fill="#6B3194"/>
<path d="M1249.4 689.717C1249.4 689.717 1213.08 757.562 1258.21 874.132C1276.23 920.626 1327.64 994.479 1327.64 994.479L1341.62 990.604C1341.62 990.604 1331.31 916.514 1304.88 881.792C1278.46 847.07 1277.03 681.487 1277.03 681.487L1249.4 689.717Z" fill="#6B3194"/>
<path d="M1282.11 547.783C1305.27 551.473 1341.72 576.424 1341.72 576.424L1302.16 494.728L1310.86 488.949C1310.86 488.949 1365.55 549.61 1370.15 579.177C1374.15 604.928 1362.27 609.721 1331.35 603.627C1315.68 600.545 1289.07 591.753 1274.29 585.704C1261.74 580.562 1259.96 585.118 1255.15 574.567C1254.87 573.959 1254.96 573.245 1254.9 572.599C1253.6 557.478 1267.41 545.436 1282.11 547.783Z" fill="#AC6D57"/>
<path d="M1245.77 596.607C1245.77 596.607 1209.02 644.034 1193.04 659.617C1177.09 675.196 1131.95 701.974 1131.95 701.974L1122.47 695.631C1122.47 695.631 1169.41 646.166 1182.35 627.915C1195.29 609.664 1221.44 554.96 1241.4 551.491C1261.33 548.006 1263.73 571.376 1245.77 596.607Z" fill="#AC6D57"/>
<path d="M1218.29 605.151C1211.45 542.915 1267.44 537.44 1291.36 550.707C1315.28 563.974 1318.51 673.764 1318.51 673.764L1248.36 689.301C1248.36 689.321 1225.33 669.12 1218.29 605.151Z" fill="#F4A386"/>
<path d="M1313.12 493.101L1301.66 494.408C1301.66 494.408 1287.03 457.903 1290.14 456.603C1292.14 455.762 1298.15 469.538 1298.15 469.538C1298.15 469.538 1295.15 449.148 1300.63 438.279C1303.44 435.59 1303.56 441.785 1303.56 441.785C1303.56 441.785 1303.66 444.011 1306.59 447.186C1307.69 448.374 1308.85 451.136 1309.87 454.13C1312.16 460.854 1313.34 467.914 1313.64 475.045C1313.89 480.578 1313.92 487.426 1313.12 493.101Z" fill="#AC6D57"/>
<path d="M1123.37 695.627L1132.85 701.977C1132.85 701.977 1121.59 737.966 1117.81 738.233C1114.84 738.442 1120.69 722.737 1120.69 722.737C1120.69 722.737 1106.24 746.008 1102.87 746.266C1099.49 746.505 1112.12 726.832 1112.12 726.832C1112.12 726.832 1098.38 746.759 1096.99 745.523C1095.61 744.287 1098.74 738.983 1107.88 723.343C1107.88 723.343 1094.97 741.321 1093.49 739.999C1092.62 739.226 1101.06 725.698 1104.74 720.546C1102.05 724.028 1093.59 733.479 1092.91 732.88C1091.59 731.693 1101.47 711.823 1123.37 695.627Z" fill="#AC6D57"/>
<path d="M1269.64 518.739L1271 553.168C1271.36 560.935 1265.99 568.033 1258.43 569.264C1258.31 569.285 1258.19 569.305 1258.07 569.326C1257.97 569.343 1257.89 569.357 1257.81 569.37C1251.29 570.237 1245.53 565.113 1245.01 558.465L1242.23 523.438L1269.64 518.739Z" fill="#9A5740"/>
<path d="M1244.71 549.006C1244.71 549.006 1245.77 569.326 1261.21 563.89C1273.45 559.585 1271.03 545.03 1271.03 545.03C1271.03 545.03 1298.54 546.166 1327.66 567.156C1328.32 587.524 1345.39 668.297 1353.24 704.592C1355.55 715.244 1349.32 725.921 1339.01 729.149C1317.96 735.745 1280.71 743.819 1238.41 736.686C1229.39 735.171 1222.64 727.551 1221.87 718.276C1217.44 665.466 1210.93 581.48 1210.93 581.48C1210.93 581.48 1223.6 556.392 1244.71 549.006Z" fill="#F4E3FF"/>
<path d="M1277.77 564.572L1235.17 655.724L1276.39 650.229L1257.21 718.651L1321.59 628.278L1274.23 631.1L1277.77 564.572Z" fill="#EFBA00"/>
<path d="M1272.29 498.744C1272.29 498.744 1279.55 493.495 1282.35 503.105C1285.14 512.716 1273.64 516.72 1273.64 516.72C1273.64 516.72 1264.23 533.634 1246.53 540.689C1236.35 544.748 1227.76 540.6 1223.66 530.439C1215.09 509.201 1217.18 480.623 1228.85 473.23C1243.44 464.014 1267.16 472.208 1272.29 498.744Z" fill="#AC6D57"/>
<path d="M1224.93 506.376C1224.82 508.034 1225.82 509.434 1227.17 509.484C1228.52 509.553 1229.67 508.244 1229.78 506.586C1229.89 504.928 1228.89 503.528 1227.54 503.479C1226.2 503.429 1225.04 504.719 1224.93 506.376Z" fill="#1C2A67"/>
<path d="M1230.91 505.906C1230.91 505.906 1225.73 499.59 1219.31 505.389" stroke="#1C2A67" stroke-width="0.7608" stroke-miterlimit="10" stroke-linecap="round" stroke-linejoin="round"/>
<path d="M1249.48 507.762C1249.37 509.419 1250.38 510.819 1251.72 510.869C1253.07 510.938 1254.23 509.629 1254.34 507.971C1254.45 506.313 1253.44 504.913 1252.1 504.864C1250.75 504.814 1249.57 506.107 1249.48 507.762Z" fill="#1C2A67"/>
<path d="M1255.46 507.291C1255.46 507.291 1250.28 500.975 1243.86 506.774" stroke="#1C2A67" stroke-width="0.7608" stroke-miterlimit="10" stroke-linecap="round" stroke-linejoin="round"/>
<path d="M1236.04 505.401C1236.04 505.401 1227.34 520.6 1236.4 521.033" stroke="#1C2A67" stroke-width="0.7608" stroke-miterlimit="10" stroke-linecap="round" stroke-linejoin="round"/>
<path d="M1248.66 520.655C1249.08 513.996 1254.75 508.846 1261.29 509.145C1266.98 509.411 1271.46 513.693 1272.28 519.173C1270.21 522.279 1265.88 528.01 1259.43 533.196C1253.04 532.726 1248.25 527.19 1248.66 520.655Z" fill="#8C452D" fill-opacity="0.56"/>
<path d="M1226.06 519.216C1225.87 522.192 1224.59 524.822 1222.69 526.862C1220.57 520.671 1219.32 514.019 1218.89 507.511C1223.36 509.423 1226.38 513.996 1226.06 519.216Z" fill="#8C452D" fill-opacity="0.56"/>
<path d="M1278.05 502.351C1278.05 502.351 1272.48 502.546 1273.53 509.281C1275.4 510.187 1275.27 512.242 1274.34 512.775" stroke="#1C2A67" stroke-width="0.7608" stroke-miterlimit="10" stroke-linecap="round" stroke-linejoin="round"/>
<path d="M1256.6 500.835C1256.6 500.835 1251.39 495.932 1244.05 499.902" stroke="#1C2A67" stroke-width="0.7608" stroke-miterlimit="10" stroke-linecap="round" stroke-linejoin="round"/>
<path d="M1231.92 499.43C1231.92 499.43 1226.71 494.527 1219.38 498.497" stroke="#1C2A67" stroke-width="0.7608" stroke-miterlimit="10" stroke-linecap="round" stroke-linejoin="round"/>
<path d="M1263.82 492.208C1263.82 492.208 1263.38 507.965 1268.55 507.067C1273.71 506.17 1274.49 498.195 1274.49 498.195C1274.49 498.195 1279.96 494.52 1277.69 479.91C1275.42 465.299 1250.93 448.08 1236.31 457.785C1221.71 467.487 1213.98 452.452 1202.97 467.999C1191.96 483.546 1215.29 504.038 1238.57 491.804C1261.85 479.571 1263.82 492.208 1263.82 492.208Z" fill="#360857"/>
<path d="M1265.63 503.242C1265.63 503.242 1262.21 514.036 1255.21 517.772C1248.2 521.488 1241.46 525.711 1228.14 522.824C1221.08 520.467 1219.36 519.147 1220.73 527.326C1223.02 540.895 1229.77 550.27 1240.19 549.36C1250.62 548.449 1266.08 537.878 1270.76 503.416" fill="#360857"/>
<path d="M1245.14 525.236C1245.14 525.236 1236.17 526.564 1228.06 525.608C1228.06 525.608 1230.89 530.246 1236.78 529.919C1242.68 529.589 1245.14 525.236 1245.14 525.236Z" fill="white"/>
<path d="M1291.49 783.174C1291.49 783.174 1292.97 844.454 1309.33 887.206" stroke="#27073E" stroke-width="0.7608" stroke-miterlimit="10" stroke-linecap="round" stroke-linejoin="round"/>
<path d="M1278.31 911.744L1298.38 947.361" stroke="#1C2A67" stroke-width="0.7608" stroke-miterlimit="10" stroke-linecap="round" stroke-linejoin="round"/>
<path d="M1219.62 574.884C1219.62 574.884 1227.49 634.365 1219.62 650.821" stroke="#1C2A67" stroke-width="0.7608" stroke-miterlimit="10" stroke-linecap="round" stroke-linejoin="round"/>
<path d="M1316.92 565.958C1316.92 565.958 1325.85 626.428 1335.61 637.037" stroke="#1C2A67" stroke-width="0.7608" stroke-miterlimit="10" stroke-linecap="round" stroke-linejoin="round"/>
<path d="M1138.46 700.947L1123.04 692.062L1121.04 694.556L1134.46 703.946L1138.46 700.947Z" fill="#EB5757"/>
</g>
<defs>
<filter id="filter0_d" x="-16" y="0" width="1448" height="960.61" filterUnits="userSpaceOnUse" color-interpolation-filters="sRGB">
<feFlood flood-opacity="0" result="BackgroundImageFix"/>
<feColorMatrix in="SourceAlpha" type="matrix" values="0 0 0 0 0 0 0 0 0 0 0 0 0 0 0 0 0 0 127 0"/>
<feOffset dy="4"/>
<feGaussianBlur stdDeviation="2"/>
<feColorMatrix type="matrix" values="0 0 0 0 0 0 0 0 0 0 0 0 0 0 0 0 0 0 0.25 0"/>
<feBlend mode="normal" in2="BackgroundImageFix" result="effect1_dropShadow"/>
<feBlend mode="normal" in="SourceGraphic" in2="effect1_dropShadow" result="shape"/>
</filter>
<linearGradient id="paint0_linear" x1="-22.5" y1="-9.56531e-06" x2="966.248" y2="700.353" gradientUnits="userSpaceOnUse">
<stop stop-color="#FFC700"/>
<stop offset="1" stop-color="#FFD910"/>
</linearGradient>
<linearGradient id="paint1_linear" x1="-22.5" y1="-9.56531e-06" x2="966.248" y2="700.353" gradientUnits="userSpaceOnUse">
<stop stop-color="#FFC700"/>
<stop offset="1" stop-color="#FFD910"/>
</linearGradient>
</defs>
</svg>
