<svg width="1428" height="1048" viewBox="0 0 1428 1048" fill="none" xmlns="http://www.w3.org/2000/svg">
<g filter="url(#filter0_d)">
<path d="M-12 0.5H1428V1001.4C1352.48 1032.33 1298.5 1039.5 1222.29 1039.5C1146.07 1039.5 1098.3 1001.4 1016.57 1001.4C934.84 1001.4 892.588 1039.5 810.857 1039.5C729.126 1039.5 686.874 1001.4 605.143 1001.4C523.412 1001.4 481.16 1039.5 399.429 1039.5C317.697 1039.5 275.446 1001.4 193.714 1001.4C111.983 1001.4 69.6928 1041.98 -12 1039.5L-12 0.5Z" fill="url(#paint0_linear)"/>
</g>
<mask id="mask0" mask-type="alpha" maskUnits="userSpaceOnUse" x="-12" y="0" width="1440" height="1040">
<path d="M-12 0.5H1428V1001.4C1352.48 1032.33 1298.5 1039.5 1222.29 1039.5C1146.07 1039.5 1098.3 1001.4 1016.57 1001.4C934.84 1001.4 892.588 1039.5 810.857 1039.5C729.126 1039.5 686.874 1001.4 605.143 1001.4C523.412 1001.4 481.16 1039.5 399.429 1039.5C317.697 1039.5 275.446 1001.4 193.714 1001.4C111.983 1001.4 69.6928 1041.98 -12 1039.5L-12 0.5Z" fill="url(#paint1_linear)"/>
</mask>
<g mask="url(#mask0)">
<path d="M108.433 -265.107V573.18" stroke="#FFC700" stroke-width="4" stroke-linecap="round"/>
<path d="M159.163 -285.523V588.028" stroke="#FFC700" stroke-width="4" stroke-linecap="round"/>
<path d="M209.893 -302.227V602.876" stroke="#FFC700" stroke-width="4" stroke-linecap="round"/>
<path d="M260.624 -292.947V602.876" stroke="#FFC700" stroke-width="4" stroke-linecap="round"/>
<path d="M311.354 -274.387V588.028" stroke="#FFC700" stroke-width="4" stroke-linecap="round"/>
<path d="M362.084 -257.065V573.18" stroke="#FFC700" stroke-width="4" stroke-linecap="round"/>
<path d="M412.814 -292.947V558.332" stroke="#FFC700" stroke-width="4" stroke-linecap="round"/>
<path d="M57.7024 -253.971V543.484" stroke="#FFC700" stroke-width="4" stroke-linecap="round"/>
<path d="M6.97205 -240.979V563.9" stroke="#FFC700" stroke-width="4" stroke-linecap="round"/>
<path d="M435.869 -139.804L-526.934 40.6133" stroke="#FFC700" stroke-width="4" stroke-linecap="round"/>
<path d="M474.904 -98.5531L-494.145 77.7332" stroke="#FFC700" stroke-width="4" stroke-linecap="round"/>
<path d="M503.98 -59.5006L-577.097 136.228" stroke="#FFC700" stroke-width="4" stroke-linecap="round"/>
<path d="M575.522 127.845L-556.066 331.081" stroke="#FFC700" stroke-width="4" stroke-linecap="round"/>
<path d="M568.717 182.287L-557.716 379.697" stroke="#FFC700" stroke-width="4" stroke-linecap="round"/>
<path d="M551.394 229.924L-559.367 428.313" stroke="#FFC700" stroke-width="4" stroke-linecap="round"/>
<path d="M531.597 278.18L-541.57 473.008" stroke="#FFC700" stroke-width="4" stroke-linecap="round"/>
<path d="M522.936 331.385L-565.909 527.501" stroke="#FFC700" stroke-width="4" stroke-linecap="round"/>
<path d="M539.021 373.454L-577.045 573.901" stroke="#FFC700" stroke-width="4" stroke-linecap="round"/>
<path d="M573.048 413.667L-429.264 598.029" stroke="#FFC700" stroke-width="4" stroke-linecap="round"/>
<path d="M549.538 82.0638L-534.887 278.93" stroke="#FFC700" stroke-width="4" stroke-linecap="round"/>
<path d="M512.419 39.9948L-468.259 217.14" stroke="#FFC700" stroke-width="4" stroke-linecap="round"/>
<path d="M513.939 -13.1008L-457.025 159.674" stroke="#FFC700" stroke-width="4" stroke-linecap="round"/>
<path d="M965.129 566.207V1398.93" stroke="#FFC700" stroke-opacity="0.5" stroke-width="4" stroke-linecap="round"/>
<path d="M1015.86 590.954V1424.91" stroke="#FFC700" stroke-opacity="0.5" stroke-width="4" stroke-linecap="round"/>
<path d="M1066.59 607.039V1439.76" stroke="#FFC700" stroke-opacity="0.5" stroke-width="4" stroke-linecap="round"/>
<path d="M1117.32 623.124V1455.84" stroke="#FFC700" stroke-opacity="0.5" stroke-width="4" stroke-linecap="round"/>
<path d="M1168.05 623.124V1455.84" stroke="#FFC700" stroke-opacity="0.5" stroke-width="4" stroke-linecap="round"/>
<path d="M1218.78 607.039V1439.76" stroke="#FFC700" stroke-opacity="0.5" stroke-width="4" stroke-linecap="round"/>
<path d="M1269.51 590.954V1424.91" stroke="#FFC700" stroke-opacity="0.5" stroke-width="4" stroke-linecap="round"/>
<path d="M1320.24 574.869V1408.83" stroke="#FFC700" stroke-opacity="0.5" stroke-width="4" stroke-linecap="round"/>
<path d="M1421.7 547.029V1344.48" stroke="#FFC700" stroke-opacity="0.5" stroke-width="4" stroke-linecap="round"/>
<path d="M1370.97 560.021V1364.9" stroke="#FFC700" stroke-opacity="0.5" stroke-width="4" stroke-linecap="round"/>
<path d="M1846.1 553.317L856.864 733.966" stroke="#FFC700" stroke-opacity="0.5" stroke-width="4" stroke-linecap="round"/>
<path d="M1831.26 606.522L809.846 793.358" stroke="#FFC700" stroke-opacity="0.5" stroke-width="4" stroke-linecap="round"/>
<path d="M1799.87 661.196L837.066 841.613" stroke="#FFC700" stroke-opacity="0.5" stroke-width="4" stroke-linecap="round"/>
<path d="M1838.9 702.447L869.855 878.733" stroke="#FFC700" stroke-opacity="0.5" stroke-width="4" stroke-linecap="round"/>
<path d="M1867.98 741.499L786.903 937.228" stroke="#FFC700" stroke-opacity="0.5" stroke-width="4" stroke-linecap="round"/>
<path d="M1939.52 928.845L807.934 1132.08" stroke="#FFC700" stroke-opacity="0.5" stroke-width="4" stroke-linecap="round"/>
<path d="M1932.72 983.287L806.284 1180.7" stroke="#FFC700" stroke-opacity="0.5" stroke-width="4" stroke-linecap="round"/>
<path d="M1915.39 1030.92L804.633 1229.31" stroke="#FFC700" stroke-opacity="0.5" stroke-width="4" stroke-linecap="round"/>
<path d="M1913.54 883.064L829.114 1079.93" stroke="#FFC700" stroke-opacity="0.5" stroke-width="4" stroke-linecap="round"/>
<path d="M1876.42 840.995L895.741 1018.14" stroke="#FFC700" stroke-opacity="0.5" stroke-width="4" stroke-linecap="round"/>
<path d="M1877.94 787.899L906.975 960.674" stroke="#FFC700" stroke-opacity="0.5" stroke-width="4" stroke-linecap="round"/>
<path d="M-23.0179 610.97C-101.046 648.001 -117.825 721.569 -116.461 753.725L-108.676 887.321L33.1636 1202.77C173.292 1179.29 462.388 1121.93 497.747 1080.29C541.945 1028.25 572.008 989.08 564.683 877.463C557.358 765.845 468.115 742.621 435.713 743.806C363.253 746.457 350.706 791.365 298.191 780.061C245.676 768.757 224.43 728.633 187.799 673.514C151.168 618.395 74.5175 564.681 -23.0179 610.97Z" stroke="#FFECA7" stroke-width="4"/>
<path d="M-32.6147 615.035C-110.643 652.066 -127.422 725.634 -126.057 757.789L-118.272 891.386L23.5668 1206.83C163.695 1183.35 452.792 1125.99 488.15 1084.36C532.348 1032.32 562.411 993.145 555.086 881.527C547.761 769.91 458.518 746.686 426.116 747.871C353.656 750.522 341.109 795.43 288.594 784.126C236.079 772.822 214.833 732.698 178.202 677.579C141.571 622.46 64.9207 568.746 -32.6147 615.035Z" fill="#FFDE67"/>
<path d="M1329.9 490.226C1392.27 502.282 1438.69 459.453 1454.11 436.531L1516.97 340.277L1596.21 53.3604C1505.86 1.92198 1314.96 -98.0191 1274.2 -86.2757C1223.24 -71.5965 1186.68 -59.0004 1134.62 21.8155C1082.56 102.631 1120.89 161.822 1139.64 176.654C1181.59 209.823 1211.22 184.793 1234.96 217.988C1258.71 251.183 1250.42 289.226 1243.22 345.083C1236.01 400.939 1251.94 475.156 1329.9 490.226Z" stroke="#FFECA7" stroke-width="4"/>
<path d="M1337.33 492.048C1399.69 504.104 1446.12 461.275 1461.53 438.353L1524.39 342.099L1603.63 55.1825C1513.28 3.744 1322.39 -96.1971 1281.62 -84.4537C1230.66 -69.7745 1194.1 -57.1784 1142.04 23.6375C1089.98 104.453 1128.31 163.644 1147.07 178.476C1189.01 211.645 1218.64 186.615 1242.39 219.81C1266.13 253.005 1257.85 291.048 1250.64 346.905C1243.44 402.761 1259.37 476.978 1337.33 492.048Z" fill="#FFDE67"/>
<path d="M57.7905 929.473C43.4556 827.767 26.4647 768.742 61.2618 741.011L129.018 751.756C129.018 751.756 157.885 780.028 167.88 913.298C173.931 991.398 179.321 1054.55 179.321 1054.55L172.509 1060.68C172.509 1060.68 145.461 1035.23 141.078 940.806C131.598 913.938 99.3792 820.341 99.3792 820.341C99.3792 820.341 91.2064 941.401 81.7576 948.935C72.3088 956.47 -15.2449 989.582 -15.2449 989.582L-24.2576 980.729C-24.2387 980.731 9.05833 931.798 57.7905 929.473Z" fill="#6B3194"/>
<path d="M157.483 648.43C157.483 648.43 194.915 579.216 204.05 551.968C213.187 524.7 223.317 476.607 223.317 476.607L212.58 474.768C212.58 474.768 192.421 533.343 176.862 557.865C161.304 582.388 114.009 645.551 122.683 670.097C131.373 694.664 157.483 648.43 157.483 648.43Z" fill="#F4A386"/>
<path d="M126.68 540.062C126.68 540.062 100.161 531.906 87.6936 561.658C84.4863 569.305 80.3339 576.541 74.8482 582.749C67.5702 590.986 63.6065 592.656 63.6065 592.656C63.6065 592.656 80.402 610.109 123.399 611.466C146.921 612.21 157.538 606.829 157.538 606.829C157.538 606.829 165.421 545.688 126.68 540.062Z" fill="#25033D"/>
<path d="M153.466 671.545C157.382 613.123 104.053 611.059 81.9187 624.734C59.7842 638.409 61.2639 740.992 61.2639 740.992L128.437 751.672C128.437 751.672 149.443 731.596 153.466 671.545Z" fill="#ED9077"/>
<path d="M175.977 1073.22C172.11 1070.31 168.034 1067.73 163.755 1065.44C159.655 1063.24 154.667 1060.29 152.781 1058.08C149.348 1054.03 160.715 1038.78 163.136 1039.97C169.641 1043.16 164.233 1046.31 170.655 1052.43C177.078 1058.55 180.444 1050.84 183.887 1054.47C187.329 1058.1 184.743 1063.63 192.15 1070.32C199.578 1076.99 197.835 1082.13 195.252 1082.89C193.577 1083.37 182.602 1078.22 175.977 1073.22Z" fill="#F7C05C"/>
<path d="M223.317 476.607L212.58 474.768C212.58 474.768 208.321 438.115 211.469 437.764C213.497 437.535 215.546 451.495 215.546 451.495C215.546 451.495 217.872 432.384 225.541 424.058C228.762 422.38 227.33 427.978 227.33 427.978C227.33 427.978 226.873 430.004 228.753 433.63C229.458 434.987 229.83 437.774 230.012 440.731C230.426 447.376 229.752 454.031 228.258 460.517C227.118 465.556 225.451 471.718 223.317 476.607Z" fill="#F4A386"/>
<path d="M104.573 598.666L104.521 625.012C104.503 632.275 109.891 638.603 117.111 639.341C117.224 639.353 117.337 639.366 117.45 639.379C117.544 639.39 117.619 639.398 117.695 639.407C123.917 639.86 129.162 634.769 129.388 628.54L130.57 595.723L104.573 598.666Z" fill="#ED9077"/>
<path d="M22.6676 682.659C7.67309 697.272 -43.8836 737.683 -43.8836 737.683L-36.7448 745.905C-36.7448 745.905 10.2756 725.272 27.6967 713.659C45.1179 702.046 87.0737 664.767 87.0737 664.767C87.1178 664.715 87.1618 664.663 87.2246 664.613L87.7894 622.554C68.2558 625.673 37.0628 668.626 22.6676 682.659Z" fill="#F4A386"/>
<path d="M156.795 696.481C157.77 665.166 153.845 636.884 136.977 620.586L129.624 622.045C129.624 622.045 145.779 673.596 119.974 676.198C97.0359 676.53 92.3335 620.302 92.3335 620.302C88.428 620.948 84.9439 622.424 81.9166 624.753C81.9166 624.753 83.4377 676.218 64.7378 693.255C61.3809 696.309 59.0539 700.375 57.7811 704.732C57.0658 707.187 56.1783 709.986 55.1628 713.075C70.691 707.598 91.1648 701.382 111.307 698.275C129.221 695.489 144.887 695.558 156.795 696.481Z" fill="#360857"/>
<path d="M152.868 756.866C125.528 753.46 83.3658 751.797 38.6782 763.407C32.3328 785.192 27.2322 808.453 28.1415 827.452C28.7006 839.07 36.7973 848.945 48.1404 851.501C82.354 859.229 120.634 849.147 144.146 840.68C156.546 836.224 163.531 823.148 160.416 810.345C156.999 796.345 153.332 776.94 152.868 756.866Z" fill="#360857"/>
<path d="M152.868 756.866C152.702 749.716 152.924 742.495 153.725 735.396C155.197 722.329 156.396 709.154 156.795 696.481C144.887 695.558 129.219 695.508 111.309 698.256C91.1668 701.363 70.693 707.579 55.1648 713.056C50.8777 726.054 44.2997 744.152 38.6781 763.407C83.3657 751.797 125.528 753.46 152.868 756.866Z" fill="#6B3194"/>
<path d="M95.5444 577.436C95.5444 577.436 88.3786 573.005 86.2193 582.181C84.06 591.358 95.166 594.326 95.166 594.326C95.166 594.326 104.934 609.499 122.078 614.902C131.928 618.014 139.867 613.551 143.237 603.787C150.288 583.358 146.837 556.788 135.418 550.677C121.12 543.04 99.064 552.3 95.5444 577.436Z" fill="#F4A386"/>
<path d="M140.977 581.546C141.165 583.093 140.286 584.462 139.012 584.604C137.737 584.746 136.567 583.623 136.398 582.079C136.21 580.532 137.089 579.163 138.363 579.02C139.638 578.878 140.808 580.001 140.977 581.546Z" fill="#1C2A67"/>
<path d="M135.275 581.552C135.275 581.552 139.899 575.208 146.29 580.257" stroke="#1C2A67" stroke-width="0.7608" stroke-miterlimit="10" stroke-linecap="round" stroke-linejoin="round"/>
<path d="M117.634 584.292C117.822 585.839 116.943 587.208 115.668 587.35C114.394 587.493 113.224 586.369 113.055 584.825C112.867 583.278 113.746 581.909 115.02 581.767C116.276 581.622 117.465 582.748 117.634 584.292Z" fill="#1C2A67"/>
<path d="M111.911 584.315C111.911 584.315 116.535 577.971 122.925 583.02" stroke="#1C2A67" stroke-width="0.7608" stroke-miterlimit="10" stroke-linecap="round" stroke-linejoin="round"/>
<path d="M130.419 581.328C130.419 581.328 139.378 594.885 130.894 595.893" stroke="#1C2A67" stroke-width="0.7608" stroke-miterlimit="10" stroke-linecap="round" stroke-linejoin="round"/>
<path d="M119.119 596.148C118.388 589.945 112.767 585.517 106.564 586.248C101.191 586.882 97.1399 591.192 96.6504 596.381C98.7615 599.136 103.166 604.208 109.514 608.623C115.544 607.739 119.825 602.234 119.119 596.148Z" fill="#ED9077"/>
<path d="M140.726 593.588C141.043 596.35 142.379 598.713 144.259 600.469C145.936 594.556 146.777 588.282 146.87 582.21C142.745 584.3 140.145 588.755 140.726 593.588Z" fill="#ED9077"/>
<path d="M90.111 580.98C90.111 580.98 95.3947 580.794 94.736 587.146C93.0061 588.114 93.229 590.027 94.1532 590.455" stroke="#1C2A67" stroke-width="0.7608" stroke-miterlimit="10" stroke-linecap="round" stroke-linejoin="round"/>
<path d="M110.464 578.374C110.464 578.374 115.182 573.395 122.366 576.645" stroke="#1C2A67" stroke-width="0.7608" stroke-miterlimit="10" stroke-linecap="round" stroke-linejoin="round"/>
<path d="M133.924 575.603C133.924 575.603 138.642 570.624 145.827 573.874" stroke="#1C2A67" stroke-width="0.7608" stroke-miterlimit="10" stroke-linecap="round" stroke-linejoin="round"/>
<path d="M95.5444 577.436C95.5444 577.436 116.86 575.929 130.826 552.848C133.644 565.064 129.341 572.283 129.341 572.283C129.341 572.283 140.25 571.758 147.247 563.985C146.557 551.494 128.059 541.705 112.73 545.755C97.4024 549.786 89.5424 568.769 95.5444 577.436Z" fill="#25033D"/>
<path d="M64.7399 693.236C64.7399 693.236 58.5029 744.342 46.8239 780.628C35.1449 816.915 36.9226 833.285 42.6909 849.438" stroke="#27073E" stroke-width="0.7608" stroke-miterlimit="10" stroke-linecap="round" stroke-linejoin="round"/>
<path d="M123.61 601.307C123.61 601.307 132.091 603.712 137.651 598.371" stroke="#1C2A67" stroke-width="0.7608" stroke-miterlimit="10" stroke-linecap="round" stroke-linejoin="round"/>
<path d="M228 474L211.5 474L211.5 477L228 480L228 474Z" fill="#EB5757"/>
<path d="M1276.05 282.068C1276.05 282.068 1253.2 259.393 1264.81 237.119C1276.41 214.845 1294.14 214.651 1294.14 214.651C1294.14 214.651 1274.35 204.331 1286.91 191.684C1299.47 179.038 1331.23 193.667 1308.24 215.394C1344.05 243.815 1333.06 279.176 1319.82 292.345" fill="#DD8F00"/>
<path d="M1393.49 419.129C1393.49 419.129 1433.17 451.472 1469.2 538.922C1546.8 566.443 1561.99 641.725 1561.99 641.725L1549.17 644.998C1549.17 644.998 1513.83 603.662 1476.67 584.278C1439.51 564.894 1365.09 500.154 1365.09 500.154C1365.09 500.154 1344.77 536.641 1313.86 573.623C1345.91 607.833 1325.82 647.064 1354.49 684.045C1343.56 692.602 1340.81 693.466 1340.81 693.466C1340.81 693.466 1274.93 578.782 1274.94 562.605C1274.96 546.421 1326.34 443.693 1326.34 443.693L1393.49 419.129Z" fill="#F4A386"/>
<path d="M1302.88 355.292C1302.88 355.292 1283.78 348.313 1263.17 330.153C1242.55 311.975 1211.77 294.981 1214.9 269.803C1218.05 244.62 1226.51 209.5 1226.51 209.5L1235.59 209.704L1241.54 277.946C1241.54 277.946 1279.13 298.838 1302.75 315.189C1326.39 331.553 1315.87 360.555 1302.88 355.292Z" fill="#F4A386"/>
<path d="M1365.32 306.123C1365.32 306.123 1370.77 236.928 1368.39 211.694C1366.01 186.441 1358.29 146.159 1358.29 146.159L1347.09 145.838C1347.09 145.838 1344.57 200.424 1344.44 226.037C1344.22 271.386 1329.26 319.343 1345.03 336.044C1360.81 352.744 1365.32 306.123 1365.32 306.123Z" fill="#F4A386"/>
<path d="M1287.87 363.141C1267.81 304.89 1323.14 293.561 1348.76 303.218C1374.35 312.881 1393.49 419.11 1393.49 419.11L1326.31 443.662C1326.31 443.662 1299.8 397.802 1287.87 363.141Z" fill="#F4A386"/>
<path d="M1342.09 704.389C1345.6 701.168 1349.37 698.256 1353.34 695.608C1357.14 693.075 1361.75 689.712 1363.4 687.365C1366.38 683.075 1353.82 669.188 1351.54 670.582C1345.45 674.329 1351.07 676.899 1345.34 683.51C1339.62 690.122 1335.61 682.873 1332.57 686.747C1329.54 690.62 1332.61 695.801 1325.96 703.054C1319.3 710.307 1321.49 715.168 1324.09 715.665C1325.8 715.992 1336.06 709.904 1342.09 704.389Z" fill="#360857"/>
<path d="M1227.03 215.337L1235.61 209.698C1235.61 209.698 1225.77 177.975 1222.39 177.743C1219.72 177.555 1224.86 191.396 1224.86 191.396C1224.86 191.396 1212.06 170.902 1209.02 170.707C1206 170.507 1217.19 187.83 1217.19 187.83C1217.19 187.83 1204.99 170.291 1203.75 171.38C1202.51 172.469 1205.28 177.148 1213.35 190.927C1213.35 190.927 1201.9 175.106 1200.56 176.268C1199.77 176.949 1207.26 188.858 1210.52 193.403C1208.11 190.336 1200.61 182.029 1200 182.571C1198.79 183.61 1207.5 201.115 1227.03 215.337Z" fill="#F4A386"/>
<path d="M1355.76 149.954L1347.09 145.838C1347.09 145.838 1352.08 115.204 1355.18 114.556C1357.63 114.053 1354.66 127.526 1354.66 127.526C1354.66 127.526 1363.85 106.897 1366.62 106.312C1369.39 105.727 1361.3 123.218 1361.3 123.218C1361.3 123.218 1370.3 105.401 1371.59 106.248C1372.89 107.095 1370.93 111.78 1365.24 125.573C1365.24 125.573 1373.79 109.442 1375.19 110.358C1375.99 110.887 1370.63 122.893 1368.19 127.502C1370.02 124.358 1375.9 115.684 1376.52 116.104C1377.79 116.938 1372 134.258 1355.76 149.954Z" fill="#F4A386"/>
<path d="M1354.74 282.138C1343.02 274.479 1335.62 276.808 1334.52 284.429C1333.43 292.05 1323.63 295.132 1323.63 295.132L1323.76 295.339C1323 295.413 1322.23 295.492 1321.46 295.591L1305.49 303.678C1303.51 304.692 1301.65 305.875 1299.88 307.191C1293.77 307.471 1292.71 303.385 1287.64 301.792C1281.19 299.754 1281.09 305.891 1277.62 314.259C1274.15 322.627 1253.96 327.808 1263.44 332.985C1270.51 336.845 1276.95 345.896 1279.76 350.254C1279.85 350.72 1278.82 365.349 1282.96 375.744C1287.59 387.4 1305.23 403.841 1305.23 403.841C1333.01 402.683 1359.37 388.12 1382.51 371.506C1382.51 371.506 1381.66 356.008 1376.2 338.98C1374.23 331.952 1369.47 313.43 1371.31 305.165C1373.56 294.835 1366.45 289.797 1354.74 282.138Z" fill="#F4E3FF"/>
<path d="M1317.45 272.146L1324.77 298.884C1326.79 306.267 1323.07 314.159 1315.94 316.896C1315.83 316.931 1315.72 316.985 1315.61 317.02C1315.52 317.05 1315.44 317.073 1315.35 317.122C1309.17 319.292 1302.44 315.575 1300.48 309.303L1290.24 276.289L1317.45 272.146Z" fill="#ED9077"/>
<path d="M1436.24 420.025C1426.05 412.912 1415.34 406.765 1404.97 399.978C1400.83 397.272 1392.25 387.496 1387.68 389.57C1385.76 390.442 1376.27 401.405 1372.38 404.538C1363.16 411.983 1352.22 418.798 1340.96 422.568C1330.11 426.209 1315.66 425.926 1315.66 425.926C1307.46 432.514 1296.51 449.814 1291.52 458.949C1282.75 474.965 1275.31 496.957 1288.56 512.747C1301.86 528.581 1323.62 527.203 1341.97 531.273C1360.3 535.349 1374.9 542.884 1393.62 533.908C1412.92 524.65 1427.48 500.436 1440.85 484.573C1448.28 475.783 1463.65 468.498 1467.38 457.419C1473.42 439.36 1448.62 428.687 1436.24 420.025Z" fill="#360857"/>
<path d="M1320.5 250.054C1320.5 250.054 1325.89 243.034 1331.44 251.258C1336.99 259.481 1327.17 266.538 1327.17 266.538C1327.17 266.538 1323.21 285.11 1308.37 296.813C1299.84 303.544 1290.37 302.105 1283.43 293.746C1268.87 276.272 1262.36 248.865 1271.33 238.582C1282.51 225.751 1307.67 226.651 1320.5 250.054Z" fill="#F4A386"/>
<path d="M1277.35 271.034C1277.74 272.616 1279.11 273.644 1280.43 273.313C1281.72 272.988 1282.47 271.438 1282.07 269.856C1281.68 268.274 1280.31 267.247 1278.99 267.578C1277.68 267.909 1276.95 269.453 1277.35 271.034Z" fill="#1C2A67"/>
<path d="M1282.97 268.917C1282.97 268.917 1276.06 264.39 1271.66 271.756" stroke="#1C2A67" stroke-width="0.7735" stroke-miterlimit="10" stroke-linecap="round" stroke-linejoin="round"/>
<path d="M1301.33 265.05C1301.72 266.632 1303.1 267.66 1304.41 267.328C1305.7 267.003 1306.45 265.453 1306.05 263.872C1305.66 262.29 1304.29 261.262 1302.97 261.593C1301.65 261.905 1300.93 263.449 1301.33 265.05Z" fill="#1C2A67"/>
<path d="M1306.95 262.932C1306.95 262.932 1300.04 258.406 1295.64 265.772" stroke="#1C2A67" stroke-width="0.7735" stroke-miterlimit="10" stroke-linecap="round" stroke-linejoin="round"/>
<path d="M1287.64 266.869C1287.64 266.869 1283.9 283.548 1292.62 281.377" stroke="#1C2A67" stroke-width="0.7735" stroke-miterlimit="10" stroke-linecap="round" stroke-linejoin="round"/>
<path d="M1304.29 277.254C1302.69 270.89 1306.58 264.426 1312.94 262.836C1318.46 261.448 1324.05 264.191 1326.46 269.124C1325.41 272.622 1322.99 279.241 1318.37 285.977C1312.12 287.327 1305.86 283.5 1304.29 277.254Z" fill="#ED9077"/>
<path d="M1282.09 282.779C1282.8 285.619 1282.38 288.445 1281.19 290.874C1277.33 285.674 1274.18 279.823 1271.82 273.886C1276.64 274.402 1280.85 277.804 1282.09 282.779Z" fill="#ED9077"/>
<path d="M1327.15 251.538C1327.15 251.538 1321.9 253.315 1324.9 259.319C1326.94 259.62 1327.44 261.601 1326.7 262.369" stroke="#1C2A67" stroke-width="0.7735" stroke-miterlimit="10" stroke-linecap="round" stroke-linejoin="round"/>
<path d="M1306.17 256.538C1306.17 256.538 1299.67 253.383 1293.82 259.273" stroke="#1C2A67" stroke-width="0.7735" stroke-miterlimit="10" stroke-linecap="round" stroke-linejoin="round"/>
<path d="M1282.08 262.558C1282.08 262.558 1275.58 259.403 1269.73 265.293" stroke="#1C2A67" stroke-width="0.7735" stroke-miterlimit="10" stroke-linecap="round" stroke-linejoin="round"/>
<path d="M1263.19 247.72C1263.19 247.72 1287.63 245.619 1302.18 235.45C1309.04 241.904 1315.85 263.543 1320.09 260.769C1324.32 258.001 1318.49 241.004 1318.49 241.004C1318.49 241.004 1292.87 206.786 1263.19 247.72Z" fill="#DD8F00"/>
<path d="M1332.08 692.946C1332.08 692.946 1323.88 700.048 1320.99 695.839C1318.09 691.635 1332.08 692.946 1332.08 692.946Z" stroke="#1C2A67" stroke-width="0.7735" stroke-miterlimit="10" stroke-linecap="round" stroke-linejoin="round"/>
<path d="M1332.15 693.046C1332.15 693.046 1329.37 703.521 1324.6 701.673C1319.87 699.831 1332.15 693.046 1332.15 693.046Z" stroke="#1C2A67" stroke-width="0.7735" stroke-miterlimit="10" stroke-linecap="round" stroke-linejoin="round"/>
<path d="M1315.63 425.913C1315.63 425.913 1352.83 430.999 1387.26 389.414" stroke="#1C2A67" stroke-width="0.7735" stroke-miterlimit="10" stroke-linecap="round" stroke-linejoin="round"/>
<path d="M1301.54 284.202C1301.54 284.202 1294.97 290.731 1287.14 288.651" stroke="#1C2A67" stroke-width="0.7735" stroke-miterlimit="10" stroke-linecap="round" stroke-linejoin="round"/>
<path opacity="0.5" d="M1314.11 257.554C1317.24 264.174 1314.41 272.075 1307.79 275.205C1301.18 278.336 1293.28 275.498 1290.15 268.878C1287.01 262.258 1289.85 254.356 1296.46 251.226C1303.09 248.115 1310.98 250.934 1314.11 257.554Z" fill="#6B3194"/>
<path opacity="0.5" d="M1285.71 264.561C1288.84 271.181 1286 279.082 1279.39 282.212C1272.77 285.342 1264.87 282.504 1261.74 275.884C1258.61 269.264 1261.44 261.363 1268.06 258.233C1274.68 255.121 1282.58 257.959 1285.71 264.561Z" fill="#6B3194"/>
<path d="M1284.67 266.571L1289.84 265.499" stroke="#1C2A67" stroke-width="0.7735" stroke-miterlimit="10" stroke-linecap="round" stroke-linejoin="round"/>
<path d="M1320.92 249.634L1313.15 259.193" stroke="#1C2A67" stroke-width="0.7735" stroke-miterlimit="10" stroke-linecap="round" stroke-linejoin="round"/>
<path d="M1286.88 309.04C1286.88 309.04 1291.58 321.212 1270.19 330.328" stroke="#6B3194" stroke-width="0.7735" stroke-miterlimit="10" stroke-linecap="round" stroke-linejoin="round"/>
<path d="M1342.17 285.805C1342.17 285.805 1355.49 289.629 1364.91 305.08" stroke="#6B3194" stroke-width="0.7735" stroke-miterlimit="10" stroke-linecap="round" stroke-linejoin="round"/>
<path d="M1297.19 310.134C1297.19 310.134 1299.16 328.795 1318.41 323.188C1337.66 317.564 1329.69 297.089 1329.69 297.089" stroke="#6B3194" stroke-width="0.7735" stroke-miterlimit="10" stroke-linecap="round" stroke-linejoin="round"/>
<path d="M1314.56 431.637C1314.56 431.637 1352.33 440.552 1391.43 395.153" stroke="#6B3194" stroke-width="0.7735" stroke-miterlimit="10" stroke-linecap="round" stroke-linejoin="round"/>
<path d="M1322.02 432.824C1322.02 432.824 1308.62 466.824 1308.64 491.628" stroke="#6B3194" stroke-width="0.7735" stroke-miterlimit="10" stroke-linecap="round" stroke-linejoin="round"/>
<path d="M1350.26 426.528C1350.26 426.528 1374.34 461.024 1395.64 499.46" stroke="#6B3194" stroke-width="0.7735" stroke-miterlimit="10" stroke-linecap="round" stroke-linejoin="round"/>
<path d="M1381.77 405.759C1381.77 405.759 1407.07 418.598 1430.98 442.029" stroke="#6B3194" stroke-width="0.7735" stroke-miterlimit="10" stroke-linecap="round" stroke-linejoin="round"/>
<path d="M1375.24 411.346C1375.24 411.346 1391.64 423.68 1404.24 441.932" stroke="#6B3194" stroke-width="0.7735" stroke-miterlimit="10" stroke-linecap="round" stroke-linejoin="round"/>
<path d="M1291.63 214.063C1291.63 214.063 1306.22 213.276 1311.77 217.283" stroke="#1C2A67" stroke-width="0.7608" stroke-miterlimit="10" stroke-linecap="round" stroke-linejoin="round"/>
<path d="M1291.59 213.417C1291.59 213.417 1302.66 208.782 1312.08 213.568" stroke="#1C2A67" stroke-width="0.7608" stroke-miterlimit="10" stroke-linecap="round" stroke-linejoin="round"/>
<path d="M1237 213L1237 209L1221.5 214.5L1221.5 219.5L1237 213Z" fill="#6FCF97"/>
</g>
<defs>
<filter id="filter0_d" x="-16" y="0.5" width="1448" height="1047.11" filterUnits="userSpaceOnUse" color-interpolation-filters="sRGB">
<feFlood flood-opacity="0" result="BackgroundImageFix"/>
<feColorMatrix in="SourceAlpha" type="matrix" values="0 0 0 0 0 0 0 0 0 0 0 0 0 0 0 0 0 0 127 0"/>
<feOffset dy="4"/>
<feGaussianBlur stdDeviation="2"/>
<feColorMatrix type="matrix" values="0 0 0 0 0 0 0 0 0 0 0 0 0 0 0 0 0 0 0.25 0"/>
<feBlend mode="normal" in2="BackgroundImageFix" result="effect1_dropShadow"/>
<feBlend mode="normal" in="SourceGraphic" in2="effect1_dropShadow" result="shape"/>
</filter>
<linearGradient id="paint0_linear" x1="-22.5" y1="0.49999" x2="1021.92" y2="678.707" gradientUnits="userSpaceOnUse">
<stop stop-color="#FFC700"/>
<stop offset="1" stop-color="#FFD910"/>
</linearGradient>
<linearGradient id="paint1_linear" x1="-22.5" y1="0.49999" x2="1021.92" y2="678.706" gradientUnits="userSpaceOnUse">
<stop stop-color="#FFC700"/>
<stop offset="1" stop-color="#FFD910"/>
</linearGradient>
</defs>
</svg>
