<svg width="1428" height="1104" viewBox="0 0 1428 1104" fill="none" xmlns="http://www.w3.org/2000/svg">
<g filter="url(#filter0_d)">
<path d="M-7 430H1428V1104H-7V430Z" fill="url(#paint0_linear)"/>
</g>
<path d="M358.669 74.7792V745.949" stroke="#B268FF" stroke-opacity="0.4" stroke-width="4" stroke-linecap="round"/>
<path d="M404.588 94.725V766.892" stroke="#B268FF" stroke-opacity="0.4" stroke-width="4" stroke-linecap="round"/>
<path d="M450.507 107.689V778.859" stroke="#B268FF" stroke-opacity="0.4" stroke-width="4" stroke-linecap="round"/>
<path d="M496.426 120.654V791.823" stroke="#B268FF" stroke-opacity="0.4" stroke-width="4" stroke-linecap="round"/>
<path d="M542.345 120.654V791.823" stroke="#B268FF" stroke-opacity="0.4" stroke-width="4" stroke-linecap="round"/>
<path d="M588.264 107.689V778.859" stroke="#B268FF" stroke-opacity="0.4" stroke-width="4" stroke-linecap="round"/>
<path d="M634.183 94.725V766.892" stroke="#B268FF" stroke-opacity="0.4" stroke-width="4" stroke-linecap="round"/>
<path d="M680.102 81.7601V753.927" stroke="#B268FF" stroke-opacity="0.4" stroke-width="4" stroke-linecap="round"/>
<path d="M817.858 50.3459V726.003" stroke="#B268FF" stroke-opacity="0.4" stroke-width="4" stroke-linecap="round"/>
<path d="M863.777 33.8909V737.971" stroke="#B268FF" stroke-opacity="0.4" stroke-width="4" stroke-linecap="round"/>
<path d="M909.696 20.4275V749.938" stroke="#B268FF" stroke-opacity="0.4" stroke-width="4" stroke-linecap="round"/>
<path d="M955.615 27.907V749.938" stroke="#B268FF" stroke-opacity="0.4" stroke-width="4" stroke-linecap="round"/>
<path d="M1001.53 42.8662V737.97" stroke="#B268FF" stroke-opacity="0.4" stroke-width="4" stroke-linecap="round"/>
<path d="M1047.45 56.8282V726.003" stroke="#B268FF" stroke-opacity="0.4" stroke-width="4" stroke-linecap="round"/>
<path d="M1093.37 27.907V714.036" stroke="#B268FF" stroke-opacity="0.4" stroke-width="4" stroke-linecap="round"/>
<path d="M771.939 59.3214V702.068" stroke="#B268FF" stroke-opacity="0.4" stroke-width="4" stroke-linecap="round"/>
<path d="M726.021 69.7928V718.523" stroke="#B268FF" stroke-opacity="0.4" stroke-width="4" stroke-linecap="round"/>
<path d="M1158.02 64.5207L262.598 210.124" stroke="#B268FF" stroke-opacity="0.4" stroke-width="4" stroke-linecap="round"/>
<path d="M1144.58 107.404L220.039 257.993" stroke="#B268FF" stroke-opacity="0.4" stroke-width="4" stroke-linecap="round"/>
<path d="M1116.17 151.471L244.678 296.887" stroke="#B268FF" stroke-opacity="0.4" stroke-width="4" stroke-linecap="round"/>
<path d="M1151.5 184.719L274.358 326.806" stroke="#B268FF" stroke-opacity="0.4" stroke-width="4" stroke-linecap="round"/>
<path d="M1177.82 216.196L199.273 373.952" stroke="#B268FF" stroke-opacity="0.4" stroke-width="4" stroke-linecap="round"/>
<path d="M1242.57 367.195L218.309 531.003" stroke="#B268FF" stroke-opacity="0.4" stroke-width="4" stroke-linecap="round"/>
<path d="M1236.41 411.076L216.815 570.188" stroke="#B268FF" stroke-opacity="0.4" stroke-width="4" stroke-linecap="round"/>
<path d="M1220.74 449.471L215.321 609.372" stroke="#B268FF" stroke-opacity="0.4" stroke-width="4" stroke-linecap="round"/>
<path d="M1202.82 488.365L231.43 645.395" stroke="#B268FF" stroke-opacity="0.4" stroke-width="4" stroke-linecap="round"/>
<path d="M1194.98 531.248L209.399 689.317" stroke="#B268FF" stroke-opacity="0.4" stroke-width="4" stroke-linecap="round"/>
<path d="M1209.54 565.156L199.32 726.715" stroke="#B268FF" stroke-opacity="0.4" stroke-width="4" stroke-linecap="round"/>
<path d="M1240.33 597.567L333.085 746.162" stroke="#B268FF" stroke-opacity="0.4" stroke-width="4" stroke-linecap="round"/>
<path d="M1219.06 330.296L237.48 488.97" stroke="#B268FF" stroke-opacity="0.4" stroke-width="4" stroke-linecap="round"/>
<path d="M1185.46 296.388L297.788 439.167" stroke="#B268FF" stroke-opacity="0.4" stroke-width="4" stroke-linecap="round"/>
<path d="M1186.83 253.594L307.957 392.849" stroke="#B268FF" stroke-opacity="0.4" stroke-width="4" stroke-linecap="round"/>
<rect x="183.49" y="921.145" width="192.084" height="427.855" rx="30" fill="white" fill-opacity="0.19"/>
<rect x="208.011" y="952.865" width="34.7387" height="48.9346" rx="14" fill="white" fill-opacity="0.18"/>
<rect x="260.119" y="952.864" width="34.7387" height="48.9346" rx="14" fill="white" fill-opacity="0.18"/>
<rect x="312.227" y="952.864" width="34.7387" height="48.9346" rx="14" fill="white" fill-opacity="0.18"/>
<rect x="208.011" y="1027.9" width="34.7387" height="48.9346" rx="14" fill="white" fill-opacity="0.18"/>
<rect x="260.119" y="1027.9" width="34.7387" height="48.9346" rx="14" fill="white" fill-opacity="0.18"/>
<rect x="312.227" y="1027.9" width="34.7387" height="48.9346" rx="14" fill="white" fill-opacity="0.18"/>
<rect x="208.011" y="1102.93" width="34.7387" height="48.9346" rx="14" fill="white" fill-opacity="0.18"/>
<rect x="260.119" y="1102.93" width="34.7387" height="48.9346" rx="14" fill="white" fill-opacity="0.18"/>
<rect x="312.227" y="1102.93" width="34.7387" height="48.9346" rx="14" fill="white" fill-opacity="0.18"/>
<rect x="-12" y="654" width="186.635" height="570.943" rx="35" fill="white" fill-opacity="0.19"/>
<rect x="13.2025" y="686.424" width="34.0575" height="52.8651" rx="14" fill="white" fill-opacity="0.18"/>
<rect x="64.2888" y="686.424" width="34.0575" height="52.8651" rx="14" fill="white" fill-opacity="0.18"/>
<rect x="115.375" y="686.424" width="34.0575" height="52.8651" rx="14" fill="white" fill-opacity="0.18"/>
<rect x="13.2025" y="767.484" width="34.0575" height="52.8651" rx="14" fill="white" fill-opacity="0.18"/>
<rect x="64.2888" y="767.484" width="34.0575" height="52.8651" rx="14" fill="white" fill-opacity="0.18"/>
<rect x="115.375" y="767.484" width="34.0575" height="52.8651" rx="14" fill="white" fill-opacity="0.18"/>
<rect x="13.2025" y="848.543" width="34.0575" height="52.8651" rx="14" fill="white" fill-opacity="0.18"/>
<rect x="64.2888" y="848.543" width="34.0575" height="52.8651" rx="14" fill="white" fill-opacity="0.18"/>
<rect x="115.375" y="848.543" width="34.0575" height="52.8651" rx="14" fill="white" fill-opacity="0.18"/>
<rect x="13.2025" y="929.604" width="34.0575" height="52.8651" rx="14" fill="white" fill-opacity="0.18"/>
<rect x="64.2888" y="929.604" width="34.0575" height="52.8651" rx="14" fill="white" fill-opacity="0.18"/>
<rect x="115.375" y="929.604" width="34.0575" height="52.8651" rx="14" fill="white" fill-opacity="0.18"/>
<rect x="13.2025" y="1012.78" width="34.0575" height="52.8651" rx="14" fill="white" fill-opacity="0.18"/>
<rect x="64.2888" y="1012.78" width="34.0575" height="52.8651" rx="14" fill="white" fill-opacity="0.18"/>
<rect x="115.375" y="1012.78" width="34.0575" height="52.8651" rx="14" fill="white" fill-opacity="0.18"/>
<rect x="13.2025" y="1095.95" width="34.0575" height="52.8651" rx="14" fill="white" fill-opacity="0.18"/>
<rect x="64.2888" y="1095.95" width="34.0575" height="52.8651" rx="14" fill="white" fill-opacity="0.18"/>
<rect x="115.375" y="1095.95" width="34.0575" height="52.8651" rx="14" fill="white" fill-opacity="0.18"/>
<rect x="1033" y="751.479" width="214.167" height="477.043" rx="30" fill="white" fill-opacity="0.19"/>
<rect x="1060.34" y="786.844" width="38.7324" height="54.5604" rx="14" fill="white" fill-opacity="0.18"/>
<rect x="1118.44" y="786.844" width="38.7324" height="54.5604" rx="14" fill="white" fill-opacity="0.18"/>
<rect x="1176.54" y="786.844" width="38.7324" height="54.5604" rx="14" fill="white" fill-opacity="0.18"/>
<rect x="1060.34" y="870.503" width="38.7324" height="54.5604" rx="14" fill="white" fill-opacity="0.18"/>
<rect x="1118.44" y="870.503" width="38.7324" height="54.5604" rx="14" fill="white" fill-opacity="0.18"/>
<rect x="1176.54" y="870.503" width="38.7324" height="54.5604" rx="14" fill="white" fill-opacity="0.18"/>
<rect x="1060.34" y="954.162" width="38.7324" height="54.5604" rx="14" fill="white" fill-opacity="0.18"/>
<rect x="1118.44" y="954.162" width="38.7324" height="54.5604" rx="14" fill="white" fill-opacity="0.18"/>
<rect x="1176.54" y="954.162" width="38.7324" height="54.5604" rx="14" fill="white" fill-opacity="0.18"/>
<rect x="1060.34" y="1037.82" width="38.7324" height="54.5604" rx="14" fill="white" fill-opacity="0.18"/>
<rect x="1118.44" y="1037.82" width="38.7324" height="54.5604" rx="14" fill="white" fill-opacity="0.18"/>
<rect x="1176.54" y="1037.82" width="38.7324" height="54.5604" rx="14" fill="white" fill-opacity="0.18"/>
<rect x="1257.04" y="544" width="208.092" height="636.582" rx="35" fill="white" fill-opacity="0.19"/>
<rect x="1285.14" y="580.152" width="37.9729" height="58.9427" rx="14" fill="white" fill-opacity="0.18"/>
<rect x="1342.1" y="580.152" width="37.9729" height="58.9427" rx="14" fill="white" fill-opacity="0.18"/>
<rect x="1399.06" y="580.152" width="37.9729" height="58.9427" rx="14" fill="white" fill-opacity="0.18"/>
<rect x="1285.14" y="670.531" width="37.9729" height="58.9427" rx="14" fill="white" fill-opacity="0.18"/>
<rect x="1342.1" y="670.531" width="37.9729" height="58.9427" rx="14" fill="white" fill-opacity="0.18"/>
<rect x="1399.06" y="670.531" width="37.9729" height="58.9427" rx="14" fill="white" fill-opacity="0.18"/>
<rect x="1285.14" y="760.909" width="37.9729" height="58.9427" rx="14" fill="white" fill-opacity="0.18"/>
<rect x="1342.1" y="760.909" width="37.9729" height="58.9427" rx="14" fill="white" fill-opacity="0.18"/>
<rect x="1399.06" y="760.909" width="37.9729" height="58.9427" rx="14" fill="white" fill-opacity="0.18"/>
<rect x="1285.14" y="851.288" width="37.9729" height="58.9427" rx="14" fill="white" fill-opacity="0.18"/>
<rect x="1342.1" y="851.288" width="37.9729" height="58.9427" rx="14" fill="white" fill-opacity="0.18"/>
<rect x="1399.06" y="851.288" width="37.9729" height="58.9427" rx="14" fill="white" fill-opacity="0.18"/>
<rect x="1285.14" y="944.025" width="37.9729" height="58.9427" rx="14" fill="white" fill-opacity="0.18"/>
<rect x="1342.1" y="944.025" width="37.9729" height="58.9427" rx="14" fill="white" fill-opacity="0.18"/>
<rect x="1399.06" y="944.025" width="37.9729" height="58.9427" rx="14" fill="white" fill-opacity="0.18"/>
<rect x="1285.14" y="1036.76" width="37.9729" height="58.9427" rx="14" fill="white" fill-opacity="0.18"/>
<rect x="1342.1" y="1036.76" width="37.9729" height="58.9427" rx="14" fill="white" fill-opacity="0.18"/>
<rect x="1399.06" y="1036.76" width="37.9729" height="58.9427" rx="14" fill="white" fill-opacity="0.18"/>
<defs>
<filter id="filter0_d" x="-11" y="430" width="1443" height="682" filterUnits="userSpaceOnUse" color-interpolation-filters="sRGB">
<feFlood flood-opacity="0" result="BackgroundImageFix"/>
<feColorMatrix in="SourceAlpha" type="matrix" values="0 0 0 0 0 0 0 0 0 0 0 0 0 0 0 0 0 0 127 0"/>
<feOffset dy="4"/>
<feGaussianBlur stdDeviation="2"/>
<feColorMatrix type="matrix" values="0 0 0 0 0 0 0 0 0 0 0 0 0 0 0 0 0 0 0.25 0"/>
<feBlend mode="normal" in2="BackgroundImageFix" result="effect1_dropShadow"/>
<feBlend mode="normal" in="SourceGraphic" in2="effect1_dropShadow" result="shape"/>
</filter>
<linearGradient id="paint0_linear" x1="10.9375" y1="476.7" x2="1257.94" y2="224.096" gradientUnits="userSpaceOnUse">
<stop stop-color="#6A3093"/>
<stop offset="1" stop-color="#A044FF"/>
</linearGradient>
</defs>
</svg>
