<svg xmlns="http://www.w3.org/2000/svg" width="89" height="154" viewBox="0 0 89 154"><g><g><g/><g><g><path fill="#6b3393" d="M83.492 51.215c2.884 0 5.23 2.364 5.23 5.277v3.024c0 2.844-2.247 5.163-5.045 5.262L81.272 85.55a2.232 2.232 0 0 1-2.47 1.971 2.24 2.24 0 0 1-1.957-2.49l2.346-20.241H9.771l5.783 49.95H73.41l2.227-19.242a2.229 2.229 0 0 1 2.47-1.971 2.24 2.24 0 0 1 1.956 2.49l-2.458 21.228a2.231 2.231 0 0 1-2.212 1.983h-.36l-2.822 32.43a2.237 2.237 0 0 1-2.22 2.052H18.974a2.237 2.237 0 0 1-2.22-2.052l-1.096-12.579a2.237 2.237 0 0 1 2.024-2.433 2.233 2.233 0 0 1 2.414 2.04l.917 10.527H67.95l2.61-29.988H18.41l.774 8.904a2.241 2.241 0 0 1-2.223 2.442 2.236 2.236 0 0 1-2.218-2.049l-.81-9.297h-.36a2.237 2.237 0 0 1-2.214-1.986L5.285 64.772C2.487 64.673.24 62.354.24 59.51v-3.024c0-2.907 2.346-5.271 5.23-5.271h19.026a20.478 20.478 0 0 1-.25-3.201c0-11.244 9.079-20.394 20.235-20.394 11.156 0 20.235 9.15 20.235 20.394 0 1.08-.086 2.148-.25 3.201zm-54.465 0h30.909c.21-1.047.321-2.118.321-3.201 0-8.766-7.075-15.9-15.776-15.9-8.7 0-15.779 7.131-15.779 15.9 0 1.083.11 2.154.325 3.201zm55.242 8.295v-3.024a.78.78 0 0 0-.774-.78H5.47a.78.78 0 0 0-.774.78v3.024c0 .432.348.78.774.78h78.022a.777.777 0 0 0 .774-.78z"/></g><g><path fill="#6b3393" d="M36.173 21.89a36.445 36.445 0 0 1 9.584-17.664 2.259 2.259 0 0 0-.017-3.177 2.213 2.213 0 0 0-3.15.018A40.953 40.953 0 0 0 31.824 20.91a2.253 2.253 0 0 0 1.69 2.682c1.29.3 2.394-.507 2.659-1.7z"/></g><g><path fill="#6b3393" d="M45.115 23.533c1.435.456 2.503-.492 2.81-1.437 3.334-10.29 12.8-17.205 23.554-17.205a2.236 2.236 0 0 0 2.229-2.244A2.238 2.238 0 0 0 71.481.4C58.795.4 47.627 8.56 43.692 20.701c-.384 1.179.25 2.46 1.423 2.832z"/></g></g></g></g></svg>