<svg xmlns="http://www.w3.org/2000/svg" width="120" height="118" viewBox="0 0 120 118"><g><g><g/><g><g><path fill="#6b3792" d="M67.46 51.423a2.36 2.36 0 0 0-3.342 0L52.543 63.005a2.369 2.369 0 0 0 0 3.348 2.363 2.363 0 0 0 3.342 0L67.46 54.77a2.369 2.369 0 0 0 0-3.348z"/></g><g><g><path fill="#6b3792" d="M117.737 81.072v9.055a2.367 2.367 0 0 1-2.365 2.368 2.366 2.366 0 0 1-2.362-2.368v-9.055c0-4.635-6.376-9.182-12.118-10.233v31.694c0 6.465-5.988 11.727-13.347 11.727-7.364 0-13.355-5.26-13.355-11.727 0-6.466 5.99-11.728 13.355-11.728 3.286 0 6.295 1.051 8.622 2.785V68.247a2.365 2.365 0 0 1 2.363-2.367c4.015 0 8.658 1.567 12.417 4.192 4.378 3.055 6.788 6.963 6.79 11zm-21.57 21.46c0-3.856-3.867-6.995-8.622-6.995-4.756 0-8.628 3.137-8.628 6.996 0 3.856 3.87 6.995 8.628 6.995 4.753 0 8.62-3.139 8.622-6.995z"/></g><g><path fill="#6b3792" d="M.29 43.889c0-5.009 4.596-9.084 10.247-9.084 2.032 0 3.926.53 5.52 1.439V12.662c0-2.526 1.8-4.914 4.19-5.555h.002L46.371.158c1.335-.356 2.702-.105 3.742.695 1.062.816 1.671 2.114 1.671 3.559v27.733c0 5.009-4.596 9.084-10.246 9.084-5.651 0-10.247-4.075-10.247-9.084 0-5.004 4.596-9.076 10.247-9.076 2.032 0 3.925.528 5.52 1.436V16.38l-25.595 6.814a4.708 4.708 0 0 1-.682.13V43.24c0 .08-.004.158-.014.235.01.138.014.277.014.415 0 5.009-4.596 9.084-10.246 9.084-5.651 0-10.247-4.073-10.245-9.086zm46.767-11.744c0-2.395-2.475-4.345-5.52-4.345-3.041 0-5.519 1.948-5.519 4.345 0 2.4 2.475 4.352 5.52 4.352 3.044 0 5.52-1.952 5.52-4.352zM20.781 18.48l25.587-6.815c.284-.075.69-.593.69-.976V4.871L21.462 11.68c-.286.078-.682.587-.682.983zM5.015 43.891c0 2.358 2.529 4.352 5.52 4.352 2.99 0 5.52-1.994 5.52-4.352 0-2.358-2.527-4.352-5.52-4.352-2.991 0-5.52 1.994-5.52 4.352z"/></g><g><path fill="#6b3792" d="M87.174 54.504l-16.39 15.572-2.814 2.803c-.462.46-1.064.69-1.667.69a2.355 2.355 0 0 1-1.675-.697 2.368 2.368 0 0 1 .009-3.345l2.836-2.825c.014-.011.026-.025.04-.037L81.97 52.927a27.556 27.556 0 0 1-8.922-5.956 27.582 27.582 0 0 1-5.96-8.936L16.823 90.983c-1.736 1.832-1.755 4.614-.04 6.334l5.942 5.937c1.718 1.722 4.493 1.703 6.326-.04L49.2 84.013a2.361 2.361 0 0 1 3.342.082c.9.948.863 2.444-.082 3.345L32.31 106.644c-1.845 1.757-4.18 2.635-6.495 2.635a9.04 9.04 0 0 1-6.431-2.677l-.13-.129c-2.04 5.039-5.779 7.779-8.863 9.24-4.05 1.919-7.803 2.048-7.96 2.053h-.07a2.363 2.363 0 0 1-2.36-2.297 2.364 2.364 0 0 1 2.285-2.432c.464-.019 10.777-.514 13.221-10.313l-2.062-2.062c-3.542-3.55-3.558-9.231-.045-12.935l52.114-54.895a27.599 27.599 0 0 1-.376-2.484 27.636 27.636 0 0 1 3.504-16.537 8.11 8.11 0 0 1-.417-2.566c0-2.147.83-4.16 2.342-5.67a8.016 8.016 0 0 1 8.23-1.924A27.621 27.621 0 0 1 95.329.144a27.555 27.555 0 0 1 16.615 7.908 27.578 27.578 0 0 1 7.91 16.628 27.646 27.646 0 0 1-3.504 16.536c.277.819.42 1.685.42 2.576a7.95 7.95 0 0 1-2.344 5.663 7.99 7.99 0 0 1-5.667 2.344 8.094 8.094 0 0 1-2.571-.423 27.584 27.584 0 0 1-16.523 3.51 25.508 25.508 0 0 1-2.49-.382zM83.09 6.766l30.153 30.16c3.832-8.495 2.093-18.791-4.639-25.524-6.733-6.73-17.022-8.469-25.514-4.636zm-10.136 4.479c0 .882.34 1.708.956 2.325l32.522 32.538a3.294 3.294 0 0 0 4.654 0 3.247 3.247 0 0 0 .957-2.318 3.27 3.27 0 0 0-.957-2.33L78.556 8.922a3.274 3.274 0 0 0-2.324-.962 3.274 3.274 0 0 0-3.28 3.285zm-1.198 6.86c-3.834 8.494-2.095 18.788 4.638 25.523 6.731 6.735 17.02 8.473 25.507 4.635z"/></g></g><g><path fill="#6b3792" d="M60.08 76.618a2.362 2.362 0 0 0-3.329.303l-.032.04a2.365 2.365 0 0 0 3.63 3.028l.033-.04a2.365 2.365 0 0 0-.303-3.33z"/></g></g></g></g></svg>