<svg xmlns="http://www.w3.org/2000/svg" width="140" height="140" viewBox="0 0 140 140"><g><g><g><path fill="#6b3592" d="M84 14c-.008 7.731-6.273 13.992-14 14-7.731 0-14-6.269-14-14S62.269 0 70 0s14 6.269 14 14zm-4.667 0c0-5.153-4.18-9.333-9.333-9.333-5.153 0-9.333 4.18-9.333 9.333 0 5.153 4.18 9.333 9.333 9.333 5.153 0 9.333-4.18 9.333-9.333z"/></g><g><path fill="#6b3592" d="M79.333 30.33c6.44.008 11.66 5.227 11.667 11.667v14a7 7 0 0 1-7 7H56a7 7 0 0 1-7-7v-14c.008-6.44 5.227-11.66 11.667-11.667h.548l.498.245a18.582 18.582 0 0 0 16.578 0l.494-.245zm7 11.667a7 7 0 0 0-6.506-6.98 23.346 23.346 0 0 1-19.658 0 7 7 0 0 0-6.502 6.98v14A2.335 2.335 0 0 0 56 58.33h28a2.335 2.335 0 0 0 2.333-2.333z"/></g><g><path fill="#6b3592" d="M133 91c0 7.731-6.269 14-14 14s-14-6.269-14-14 6.269-14 14-14c7.731.008 13.992 6.273 14 14zm-4.667 0c0-5.153-4.18-9.333-9.333-9.333-5.153 0-9.333 4.18-9.333 9.333 0 5.153 4.18 9.333 9.333 9.333 5.153 0 9.333-4.18 9.333-9.333z"/></g><g><path fill="#6b3592" d="M128.333 107.33c6.44.008 11.66 5.227 11.667 11.667v14a7 7 0 0 1-7 7h-28a7 7 0 0 1-7-7v-14c.008-6.44 5.227-11.66 11.667-11.667h.552l.494.233a18.607 18.607 0 0 0 16.578 0l.494-.233zm7 11.667a6.997 6.997 0 0 0-6.506-6.98 23.346 23.346 0 0 1-19.658 0 6.997 6.997 0 0 0-6.502 6.98v14A2.335 2.335 0 0 0 105 135.33h28a2.335 2.335 0 0 0 2.333-2.333z"/></g><g><path fill="#6b3592" d="M35 91c0 7.731-6.269 14-14 14S7 98.731 7 91s6.269-14 14-14c7.727.008 13.992 6.273 14 14zm-4.667 0c0-5.153-4.18-9.333-9.333-9.333-5.153 0-9.333 4.18-9.333 9.333 0 5.153 4.18 9.333 9.333 9.333 5.153 0 9.333-4.18 9.333-9.333z"/></g><g><path fill="#6b3592" d="M30.333 107.33c6.44.008 11.66 5.227 11.667 11.667v14a7 7 0 0 1-7 7H7a7 7 0 0 1-7-7v-14c.008-6.44 5.227-11.66 11.667-11.667h.552l.494.233a18.607 18.607 0 0 0 16.578 0l.494-.233zm7 11.667a6.997 6.997 0 0 0-6.506-6.98 23.346 23.346 0 0 1-19.658 0 6.997 6.997 0 0 0-6.502 6.98v14A2.335 2.335 0 0 0 7 135.33h28a2.335 2.335 0 0 0 2.333-2.333z"/></g><g><path fill="#6b3592" d="M93.148 118.496c0-.004 0-.004-.004-.008a2.332 2.332 0 0 0-3.06-1.232 51.757 51.757 0 0 1-33.281 2.29l2.185-.641a2.335 2.335 0 0 0-1.314-4.48l-9.333 2.737c-.035 0-.063.04-.094.05-.214.083-.42.195-.602.335-.082.043-.16.094-.234.148-.245.222-.44.49-.571.793a2.402 2.402 0 0 0-.18.965c.059.315.137.626.234.933.016.035 0 .07.027.105l4.667 8.93a2.337 2.337 0 0 0 3.15.99 2.337 2.337 0 0 0 .992-3.15l-1.902-3.631a56.156 56.156 0 0 0 38.076-2.073 2.337 2.337 0 0 0 1.244-3.06z"/></g><g><path fill="#6b3592" d="M132.32 61.356a2.333 2.333 0 0 0-3.298 0l-3.302 3.302a55.92 55.92 0 0 0-33.802-46.2 2.33 2.33 0 0 0-3.06 1.232 2.332 2.332 0 0 0 1.232 3.06 51.252 51.252 0 0 1 30.862 41.239l-2.632-2.633a2.33 2.33 0 0 0-3.298.058 2.332 2.332 0 0 0 0 3.243l7 7a2.33 2.33 0 0 0 3.298.004l.004-.004 7-7c.91-.913.91-2.391-.004-3.301z"/></g><g><path fill="#6b3592" d="M51.263 20.198a2.362 2.362 0 0 0-.058-.404c0-.02-.027-.035-.035-.059-.008-.023 0-.038 0-.058a2.232 2.232 0 0 0-.218-.323 2.594 2.594 0 0 0-.264-.385 2.297 2.297 0 0 0-.455-.31 1.764 1.764 0 0 0-.26-.187l-9.334-4.267a2.334 2.334 0 1 0-1.937 4.243l4.834 2.21C25.34 30.397 13.984 49.36 14 69.994a2.335 2.335 0 0 0 2.333 2.334 2.335 2.335 0 0 0 2.334-2.334 51.25 51.25 0 0 1 25.254-44.2l-1.688 3.527a2.334 2.334 0 0 0 2.1 3.344c.895 0 1.712-.513 2.1-1.322l4.667-9.738c0-.023 0-.047.02-.07a2.19 2.19 0 0 0 .124-.494c.039-.124.07-.253.09-.385a2.222 2.222 0 0 0-.07-.459z"/></g></g></g></svg>